<?xml version="1.0" encoding="utf-8"?>
<!-- Generator: Adobe Illustrator 16.0.0, SVG Export Plug-In . SVG Version: 6.00 Build 0)  -->
<!DOCTYPE svg PUBLIC "-//W3C//DTD SVG 1.1//EN" "http://www.w3.org/Graphics/SVG/1.1/DTD/svg11.dtd">
<svg version="1.1" id="Layer_1" xmlns="http://www.w3.org/2000/svg" xmlns:xlink="http://www.w3.org/1999/xlink" x="0px" y="0px"
	 width="120px" height="120px" viewBox="0 0 120 120" enable-background="new 0 0 120 120" xml:space="preserve">
<path fill="none" stroke="#9DC03C" stroke-width="3" stroke-miterlimit="10" d="M110.799,99.563c0,6.026-4.884,10.912-10.91,10.912
	H19.385c-6.027,0-10.912-4.886-10.912-10.912V19.059c0-6.027,4.885-10.913,10.912-10.913h80.504c6.026,0,10.91,4.886,10.91,10.913
	V99.563L110.799,99.563z"/>
<g>
	<g>
		<path fill="#9DC03C" d="M83.895,70.104c-0.224-1.686-0.256-4.588,1.311-5.563c0.027-0.018,0.049-0.043,0.072-0.066
			c1.281-0.406,2.166-0.981,1.472-1.756L67.868,57.03L37.3,61.279c0,0-3.501,0.502-3.188,5.939c0.169,2.961,1.099,4.415,1.91,5.131
			l-2.51,0.756c-0.695,0.772,0.19,1.348,1.47,1.756c0.024,0.021,0.045,0.05,0.074,0.065c1.563,0.978,1.533,3.878,1.309,5.564
			c-5.62,1.596-3.604,2.116-3.604,2.116l1.234,0.297c-0.867,0.785-1.729,2.271-1.566,5.089c0.313,5.438,3.188,5.813,3.188,5.813
			l20.004,6.502l30.195-7.313c0,0,2.018-0.521-3.604-2.117c-0.226-1.685-0.258-4.586,1.312-5.563
			c0.027-0.018,0.05-0.043,0.072-0.065c1.279-0.407,2.165-0.981,1.471-1.756l-1.313-0.396c0.876-0.529,2.188-1.908,2.397-5.492
			c0.141-2.465-0.502-3.906-1.246-4.758l2.595-0.628C87.497,72.221,89.516,71.698,83.895,70.104z M58.64,70.033l5.077-1.043
			l17.158-3.526l2.557-0.526c-0.816,1.496-0.781,3.541-0.646,4.857c0.029,0.297,0.063,0.568,0.097,0.773l-2.799,0.697l-21.657,5.389
			L58.64,70.033z M36.828,75.326l2.554,0.523l16.48,3.39l1.44,0.295l0,0l0,0l4.316,0.887l0.214,6.621l-22.26-5.539l-2.194-0.545
			c0.03-0.207,0.066-0.479,0.097-0.776C37.609,78.867,37.646,76.82,36.828,75.326z M35.834,66.956
			c-0.03-1.446,0.227-2.492,0.748-3.024c0.332-0.339,0.723-0.41,0.992-0.41c0.141,0,0.243,0.021,0.251,0.021l13.171,4.295
			l6.57,2.144l-0.214,6.664l-18.437-5.166l-0.974-0.275c-0.035-0.01-0.083-0.016-0.121-0.018
			C37.746,71.18,35.922,71.011,35.834,66.956z M55.669,97.419l-19.41-5.438c-0.034-0.013-0.083-0.021-0.12-0.022
			c-0.076-0.003-1.901-0.172-1.989-4.226c-0.03-1.448,0.228-2.494,0.748-3.025c0.333-0.339,0.724-0.409,0.991-0.409
			c0.143,0,0.245,0.019,0.251,0.019l0,0l19.742,6.438L55.669,97.419z M81.102,90.568c0.028,0.298,0.063,0.568,0.097,0.773
			L56.74,97.428l0.214-6.619l5.229-1.074l0.772,0.188l2.896-0.941l13.34-2.741l2.558-0.526
			C80.93,87.206,80.965,89.253,81.102,90.568z M82.447,81.57c-0.047,0.002-0.09,0.007-0.133,0.021l-1.844,0.517l-17.563,4.925
			l-0.214-6.665l5.763-1.881l13.953-4.549c0.001-0.002,0.733-0.164,1.271,0.383c0.521,0.531,0.777,1.578,0.748,3.023
			C84.336,81.396,82.514,81.564,82.447,81.57z"/>
	</g>
</g>
<g>
	<g>
		<path fill="#9DC03C" d="M32.332,22.024h2.219L40.03,35.91l5.458-13.886h2.219v15.839h-1.509V24.176h-0.045L40.74,37.864h-1.42
			l-5.434-13.688h-0.045v13.688h-1.509V22.024L32.332,22.024z"/>
		<path fill="#9DC03C" d="M49.304,26.416h1.486l3.771,9.761l3.528-9.761h1.397l-4.969,13.178c-0.208,0.488-0.4,0.891-0.577,1.208
			c-0.177,0.318-0.373,0.569-0.588,0.755c-0.215,0.185-0.466,0.318-0.754,0.398c-0.288,0.082-0.655,0.123-1.099,0.123
			c-0.28-0.015-0.498-0.026-0.654-0.033c-0.155-0.008-0.292-0.033-0.41-0.078v-1.175c0.162,0.029,0.321,0.055,0.477,0.077
			c0.155,0.021,0.314,0.033,0.477,0.033c0.312,0,0.566-0.044,0.767-0.134c0.198-0.088,0.373-0.21,0.521-0.365
			c0.148-0.156,0.273-0.345,0.378-0.566c0.103-0.222,0.214-0.465,0.332-0.731l0.488-1.287L49.304,26.416z"/>
		<path fill="#9DC03C" d="M60.286,29.943c0-1.095,0.155-2.137,0.466-3.127c0.311-0.992,0.775-1.867,1.396-2.63
			c0.623-0.762,1.401-1.367,2.342-1.818c0.938-0.451,2.029-0.677,3.271-0.677s2.329,0.226,3.262,0.677
			c0.932,0.451,1.707,1.057,2.328,1.818c0.621,0.763,1.086,1.638,1.397,2.63c0.312,0.99,0.465,2.032,0.465,3.127
			c0,1.095-0.153,2.138-0.465,3.128c-0.312,0.991-0.776,1.863-1.397,2.617c-0.621,0.755-1.396,1.357-2.328,1.809
			c-0.933,0.452-2.02,0.677-3.262,0.677s-2.334-0.226-3.271-0.677c-0.939-0.451-1.719-1.054-2.342-1.809
			c-0.621-0.754-1.086-1.626-1.396-2.617C60.441,32.081,60.286,31.038,60.286,29.943z M61.795,29.943
			c0,0.857,0.114,1.704,0.344,2.54c0.229,0.836,0.584,1.583,1.064,2.24c0.48,0.658,1.099,1.187,1.852,1.587
			c0.756,0.399,1.657,0.6,2.707,0.6c1.051,0,1.949-0.2,2.695-0.6c0.747-0.4,1.359-0.929,1.842-1.587
			c0.48-0.657,0.835-1.404,1.064-2.24c0.229-0.836,0.344-1.683,0.344-2.54c0-0.873-0.114-1.723-0.344-2.552
			c-0.229-0.828-0.584-1.571-1.064-2.229c-0.48-0.657-1.095-1.187-1.842-1.587c-0.746-0.398-1.645-0.599-2.695-0.599
			c-1.05,0-1.951,0.2-2.707,0.599c-0.753,0.4-1.371,0.93-1.852,1.587c-0.48,0.657-0.836,1.4-1.064,2.229
			C61.909,28.221,61.795,29.07,61.795,29.943z"/>
		<path fill="#9DC03C" d="M77.568,22.024h7.033c0.709,0,1.354,0.099,1.93,0.299c0.576,0.2,1.07,0.496,1.484,0.888
			c0.416,0.393,0.733,0.869,0.955,1.431c0.223,0.563,0.332,1.198,0.332,1.908s-0.109,1.346-0.332,1.907
			c-0.222,0.563-0.539,1.039-0.955,1.431c-0.414,0.393-0.908,0.688-1.484,0.888c-0.576,0.199-1.221,0.3-1.93,0.3h-5.523v6.788h-1.51
			V22.024z M79.078,29.788h5.189c1.051,0,1.9-0.267,2.551-0.798c0.652-0.533,0.977-1.346,0.977-2.44c0-1.094-0.324-1.908-0.977-2.44
			c-0.649-0.533-1.5-0.798-2.551-0.798h-5.189V29.788z"/>
	</g>
</g>
</svg>
