<?xml version="1.0" encoding="utf-8"?>
<!-- Generator: Adobe Illustrator 16.0.0, SVG Export Plug-In . SVG Version: 6.00 Build 0)  -->
<!DOCTYPE svg PUBLIC "-//W3C//DTD SVG 1.1//EN" "http://www.w3.org/Graphics/SVG/1.1/DTD/svg11.dtd">
<svg version="1.1" id="Layer_1" xmlns="http://www.w3.org/2000/svg" xmlns:xlink="http://www.w3.org/1999/xlink" x="0px" y="0px"
	 width="120px" height="120px" viewBox="0 0 120 120" enable-background="new 0 0 120 120" xml:space="preserve">
<path fill="none" stroke="#9DC03C" stroke-width="3" stroke-miterlimit="10" d="M111.164,100.252
	c0,6.025-4.885,10.912-10.912,10.912H19.748c-6.027,0-10.912-4.887-10.912-10.912V19.747c0-6.026,4.885-10.912,10.912-10.912h80.504
	c6.027,0,10.912,4.886,10.912,10.912V100.252z"/>
<g>
	<path fill="#9DC03C" d="M59.999,51.745c-13.442,0-24.377,10.937-24.377,24.378s10.935,24.378,24.377,24.378
		c13.442,0,24.379-10.937,24.379-24.378S73.441,51.745,59.999,51.745z M59.999,97.48c-11.775,0-21.358-9.582-21.358-21.357
		s9.583-21.36,21.358-21.36c11.776,0,21.356,9.584,21.356,21.354C81.355,87.898,71.775,97.48,59.999,97.48z"/>
	<path fill="#9DC03C" d="M59.999,70.441c-3.135,0-5.682,2.545-5.682,5.682c0,3.134,2.547,5.682,5.682,5.682
		c3.136,0,5.683-2.548,5.683-5.682C65.682,72.986,63.135,70.441,59.999,70.441z M59.999,78.777c-1.468,0-2.656-1.191-2.656-2.66
		c0-1.467,1.193-2.655,2.656-2.655s2.655,1.192,2.655,2.655C62.654,77.591,61.462,78.777,59.999,78.777z"/>
	<path fill="#9DC03C" d="M42.392,77.854c0.418,0,0.736-0.438,0.721-0.854c-0.01-0.266-0.019-0.6-0.019-0.867
		c0-0.418-0.338-0.746-0.756-0.746s-0.757,0.354-0.757,0.771c0,0.291,0.005,0.62,0.021,0.905c0.019,0.405,0.353,0.793,0.757,0.793
		C42.367,77.854,42.376,77.854,42.392,77.854z"/>
	<path fill="#9DC03C" d="M51.671,90.839c-4.433-2.519-7.473-6.825-8.334-11.831c-0.068-0.408-0.457-0.688-0.87-0.615
		c-0.413,0.068-0.687,0.463-0.616,0.869c0.938,5.447,4.247,10.149,9.078,12.891c0.12,0.064,0.244,0.101,0.374,0.101
		c0.264,0,0.517-0.14,0.657-0.384C52.163,91.511,52.034,91.047,51.671,90.839z"/>
	<path fill="#9DC03C" d="M50.22,86.072c0.188,0,0.382-0.07,0.525-0.215c0.3-0.293,0.304-0.771,0.011-1.068
		c-1.962-1.995-3.045-4.637-3.045-7.438c0-0.418-0.339-0.756-0.757-0.756s-0.757,0.338-0.757,0.756c0,3.199,1.235,6.213,3.478,8.498
		C49.824,85.997,50.019,86.072,50.22,86.072z"/>
	<path fill="#9DC03C" d="M53.1,86.591c-0.214-0.126-0.423-0.25-0.627-0.385c-0.349-0.233-0.815-0.138-1.05,0.209
		c-0.23,0.351-0.136,0.817,0.209,1.045c0.232,0.154,0.471,0.306,0.716,0.442c0.12,0.066,0.245,0.101,0.372,0.101
		c0.266,0,0.518-0.139,0.658-0.384C53.587,87.256,53.462,86.794,53.1,86.591z"/>
	<path fill="#9DC03C" d="M54.118,82.182c-1.433-0.811-2.324-2.339-2.324-3.984c0-0.418-0.338-0.756-0.756-0.756
		s-0.755,0.338-0.755,0.756c0,2.189,1.183,4.22,3.089,5.299c0.12,0.064,0.245,0.102,0.373,0.102c0.265,0,0.518-0.143,0.656-0.386
		C54.606,82.85,54.478,82.386,54.118,82.182z"/>
	<path fill="#9DC03C" d="M70.598,60.456c-0.332-0.25-0.812-0.174-1.056,0.159c-0.249,0.339-0.176,0.811,0.164,1.054
		c4.894,3.599,7.498,9.583,6.785,15.627c-0.05,0.415,0.247,0.791,0.661,0.837c0.029,0.003,0.062,0.003,0.089,0.003
		c0.381,0,0.708-0.282,0.747-0.665C78.766,70.895,75.932,64.371,70.598,60.456z"/>
	<path fill="#9DC03C" d="M68.852,64.908c-0.338-0.248-0.812-0.174-1.056,0.162c-0.244,0.341-0.176,0.813,0.164,1.057
		c3.075,2.259,4.707,6.018,4.261,9.811c-0.054,0.414,0.245,0.793,0.657,0.838c0.031,0.006,0.062,0.006,0.09,0.006
		c0.38,0,0.708-0.284,0.748-0.668C74.229,71.777,72.361,67.484,68.852,64.908z"/>
	<path fill="#9DC03C" d="M67.12,68.7c-0.336-0.249-0.813-0.177-1.058,0.157c-0.246,0.34-0.174,0.812,0.166,1.056
		c1.322,0.976,2.027,2.598,1.834,4.229c-0.049,0.412,0.248,0.791,0.662,0.842c0.031,0.004,0.062,0.004,0.09,0.004
		c0.379,0,0.705-0.282,0.746-0.666C69.82,72.146,68.885,69.994,67.12,68.7z"/>
</g>
<g>
	<g>
		<path fill="#9DC03C" d="M22.006,34.644c-0.014,0.813,0.111,1.494,0.377,2.041c0.266,0.547,0.632,0.983,1.099,1.309
			c0.465,0.325,1.016,0.559,1.653,0.698c0.635,0.141,1.315,0.212,2.041,0.212c0.414,0,0.865-0.06,1.353-0.179
			c0.489-0.118,0.943-0.306,1.365-0.565c0.422-0.259,0.773-0.592,1.053-0.998c0.281-0.406,0.422-0.898,0.422-1.475
			c0-0.443-0.1-0.828-0.299-1.154c-0.2-0.325-0.459-0.598-0.777-0.821c-0.317-0.222-0.668-0.402-1.053-0.543
			c-0.385-0.14-0.762-0.255-1.132-0.344L24.58,31.96c-0.458-0.117-0.905-0.267-1.341-0.443c-0.437-0.178-0.818-0.415-1.143-0.71
			c-0.325-0.296-0.587-0.658-0.788-1.088c-0.2-0.428-0.299-0.953-0.299-1.573c0-0.385,0.074-0.836,0.222-1.354
			s0.426-1.006,0.832-1.465c0.407-0.459,0.965-0.846,1.675-1.165c0.71-0.317,1.62-0.477,2.729-0.477c0.783,0,1.531,0.104,2.24,0.312
			c0.71,0.206,1.331,0.518,1.863,0.932c0.533,0.413,0.959,0.928,1.275,1.541c0.318,0.614,0.478,1.327,0.478,2.141h-1.508
			c-0.03-0.606-0.167-1.136-0.411-1.587c-0.244-0.449-0.563-0.827-0.954-1.13c-0.392-0.304-0.843-0.533-1.353-0.688
			c-0.511-0.155-1.047-0.233-1.608-0.233c-0.519,0-1.017,0.057-1.499,0.167c-0.48,0.111-0.902,0.288-1.265,0.533
			c-0.362,0.243-0.654,0.565-0.876,0.965c-0.222,0.398-0.332,0.895-0.332,1.485c0,0.37,0.063,0.692,0.188,0.965
			c0.125,0.274,0.298,0.508,0.52,0.7c0.222,0.19,0.478,0.347,0.766,0.465c0.289,0.118,0.595,0.214,0.921,0.288l3.859,0.954
			c0.563,0.148,1.092,0.329,1.586,0.543c0.496,0.216,0.933,0.48,1.31,0.8c0.378,0.317,0.673,0.706,0.888,1.164
			c0.214,0.458,0.32,1.014,0.32,1.663c0,0.178-0.018,0.415-0.055,0.71c-0.037,0.296-0.126,0.61-0.266,0.943
			c-0.141,0.333-0.341,0.669-0.6,1.01c-0.258,0.34-0.614,0.647-1.065,0.92c-0.451,0.274-1.009,0.496-1.675,0.667
			c-0.665,0.169-1.463,0.254-2.396,0.254c-0.931,0-1.797-0.106-2.595-0.322c-0.799-0.214-1.479-0.543-2.042-0.986
			c-0.561-0.443-0.994-1.013-1.297-1.709c-0.303-0.694-0.432-1.53-0.387-2.506h1.509V34.644z"/>
		<path fill="#9DC03C" d="M39.844,28.077c0.873,0,1.646,0.163,2.318,0.487c0.673,0.326,1.239,0.763,1.698,1.31
			c0.457,0.548,0.805,1.187,1.042,1.919c0.235,0.731,0.354,1.512,0.354,2.34c0,0.828-0.117,1.608-0.354,2.341
			c-0.237,0.733-0.585,1.372-1.042,1.919c-0.459,0.548-1.025,0.979-1.698,1.297c-0.673,0.318-1.445,0.478-2.318,0.478
			c-0.873,0-1.646-0.159-2.318-0.478c-0.673-0.317-1.238-0.749-1.697-1.297c-0.459-0.547-0.806-1.187-1.042-1.919
			c-0.238-0.732-0.355-1.513-0.355-2.341c0-0.828,0.117-1.608,0.355-2.34c0.236-0.732,0.583-1.371,1.042-1.919
			c0.459-0.547,1.024-0.983,1.697-1.31C38.198,28.24,38.971,28.077,39.844,28.077z M39.844,29.253c-0.665,0-1.25,0.141-1.753,0.422
			c-0.502,0.28-0.92,0.65-1.254,1.108c-0.331,0.459-0.583,0.98-0.754,1.564c-0.17,0.583-0.255,1.179-0.255,1.785
			s0.085,1.202,0.255,1.786c0.171,0.584,0.423,1.105,0.754,1.564c0.334,0.458,0.752,0.827,1.254,1.109
			c0.503,0.28,1.088,0.421,1.753,0.421c0.665,0,1.251-0.141,1.753-0.421c0.502-0.282,0.92-0.651,1.254-1.109
			c0.331-0.459,0.584-0.98,0.754-1.564c0.168-0.584,0.256-1.18,0.256-1.786s-0.086-1.202-0.256-1.785
			c-0.17-0.584-0.423-1.105-0.754-1.564c-0.334-0.458-0.752-0.828-1.254-1.108C41.095,29.394,40.509,29.253,39.844,29.253z"/>
		<path fill="#9DC03C" d="M51.758,29.586h-2.263v10.271h-1.398V29.586h-1.951v-1.177h1.951v-1.042c0-0.488,0.037-0.939,0.111-1.354
			c0.074-0.413,0.215-0.769,0.422-1.064c0.208-0.296,0.492-0.525,0.854-0.688c0.363-0.162,0.825-0.243,1.387-0.243
			c0.208,0,0.399,0.007,0.578,0.021c0.177,0.016,0.377,0.037,0.599,0.067v1.198c-0.194-0.029-0.37-0.055-0.532-0.078
			c-0.164-0.022-0.326-0.034-0.488-0.034c-0.385,0-0.681,0.061-0.889,0.179c-0.207,0.118-0.357,0.276-0.453,0.477
			c-0.098,0.2-0.152,0.432-0.168,0.698c-0.014,0.267-0.021,0.555-0.021,0.865v0.998h2.263v1.177H51.758z"/>
		<path fill="#9DC03C" d="M55.308,28.409h2.329v1.177h-2.329v7.719c0,0.459,0.063,0.817,0.188,1.076
			c0.127,0.26,0.441,0.404,0.943,0.434c0.4,0,0.799-0.023,1.198-0.066v1.175c-0.206,0-0.414,0.008-0.62,0.022
			c-0.209,0.015-0.415,0.022-0.621,0.022c-0.934,0-1.583-0.182-1.953-0.543c-0.369-0.363-0.547-1.032-0.532-2.009v-7.83h-1.996
			v-1.177h1.996v-3.438h1.397V28.409z"/>
		<path fill="#9DC03C" d="M58.502,28.409h1.487l2.928,9.806h0.045l2.795-9.806h1.574l2.795,9.806h0.045l2.929-9.806h1.486
			l-3.684,11.447h-1.53l-2.817-9.627h-0.044l-2.795,9.627h-1.53L58.502,28.409z"/>
		<path fill="#9DC03C" d="M75.962,31.915c0.045-0.666,0.187-1.242,0.422-1.73c0.237-0.488,0.56-0.887,0.966-1.198
			c0.405-0.311,0.883-0.54,1.432-0.688c0.547-0.148,1.152-0.222,1.818-0.222c0.504,0,1.006,0.048,1.508,0.144
			c0.504,0.097,0.955,0.278,1.354,0.544c0.399,0.267,0.724,0.64,0.976,1.12c0.252,0.48,0.377,1.105,0.377,1.875v6.078
			c0,0.562,0.273,0.843,0.82,0.843c0.163,0,0.311-0.029,0.443-0.088v1.175c-0.162,0.03-0.307,0.052-0.432,0.067
			c-0.127,0.014-0.285,0.021-0.478,0.021c-0.354,0-0.64-0.049-0.854-0.144c-0.215-0.098-0.381-0.233-0.5-0.411
			c-0.119-0.177-0.195-0.389-0.232-0.632c-0.037-0.245-0.055-0.514-0.055-0.811h-0.045c-0.252,0.371-0.508,0.7-0.767,0.987
			c-0.259,0.288-0.547,0.529-0.864,0.722c-0.317,0.192-0.681,0.341-1.086,0.443c-0.408,0.104-0.893,0.155-1.453,0.155
			c-0.533,0-1.033-0.063-1.498-0.188c-0.467-0.126-0.873-0.326-1.221-0.599c-0.348-0.274-0.621-0.622-0.82-1.043
			c-0.198-0.422-0.301-0.921-0.301-1.497c0-0.799,0.18-1.424,0.533-1.875c0.355-0.451,0.824-0.795,1.408-1.03
			c0.585-0.237,1.242-0.404,1.975-0.5c0.732-0.097,1.477-0.188,2.23-0.278c0.295-0.029,0.554-0.065,0.775-0.11
			c0.221-0.045,0.405-0.121,0.555-0.232c0.146-0.111,0.262-0.262,0.344-0.455c0.082-0.192,0.123-0.443,0.123-0.754
			c0-0.473-0.078-0.861-0.234-1.165c-0.154-0.304-0.369-0.543-0.643-0.722c-0.273-0.177-0.592-0.299-0.953-0.365
			c-0.363-0.066-0.752-0.1-1.166-0.1c-0.887,0-1.611,0.21-2.174,0.632c-0.563,0.422-0.857,1.099-0.887,2.03L75.962,31.915
			L75.962,31.915z M83.417,33.601h-0.045c-0.09,0.163-0.259,0.281-0.511,0.355c-0.252,0.073-0.475,0.126-0.666,0.155
			c-0.592,0.104-1.2,0.196-1.83,0.276c-0.629,0.082-1.202,0.204-1.721,0.367c-0.517,0.162-0.94,0.396-1.274,0.698
			c-0.332,0.304-0.498,0.735-0.498,1.298c0,0.355,0.069,0.669,0.211,0.942c0.14,0.274,0.328,0.51,0.565,0.71
			c0.236,0.2,0.51,0.351,0.819,0.455c0.312,0.104,0.628,0.155,0.955,0.155c0.531,0,1.042-0.081,1.53-0.244s0.912-0.399,1.273-0.71
			c0.363-0.311,0.651-0.688,0.865-1.132c0.217-0.443,0.323-0.945,0.323-1.508v-1.817H83.417z"/>
		<path fill="#9DC03C" d="M87.609,28.409h1.287v2.686h0.045c0.354-0.933,0.904-1.649,1.65-2.152
			c0.747-0.503,1.639-0.731,2.674-0.688v1.397c-0.636-0.029-1.213,0.056-1.729,0.255c-0.517,0.199-0.966,0.484-1.343,0.854
			c-0.377,0.371-0.67,0.811-0.877,1.32c-0.207,0.509-0.311,1.069-0.311,1.675v6.101h-1.396V28.409z"/>
		<path fill="#9DC03C" d="M95.021,34.51c0,0.504,0.069,1.025,0.209,1.564c0.142,0.54,0.367,1.024,0.678,1.452
			c0.311,0.43,0.703,0.784,1.176,1.066c0.475,0.28,1.043,0.421,1.709,0.421c1.02,0,1.818-0.266,2.396-0.799
			c0.576-0.532,0.976-1.242,1.197-2.13h1.396c-0.295,1.302-0.838,2.308-1.631,3.018c-0.791,0.709-1.91,1.064-3.359,1.064
			c-0.902,0-1.684-0.159-2.342-0.478c-0.657-0.317-1.193-0.753-1.608-1.309c-0.413-0.555-0.72-1.197-0.92-1.93
			c-0.2-0.731-0.3-1.505-0.3-2.318c0-0.755,0.1-1.493,0.3-2.218s0.507-1.372,0.92-1.94c0.415-0.57,0.951-1.028,1.608-1.377
			c0.658-0.347,1.439-0.521,2.342-0.521c0.916,0,1.699,0.185,2.352,0.554c0.649,0.371,1.179,0.855,1.586,1.454
			c0.406,0.6,0.699,1.286,0.875,2.063c0.179,0.777,0.252,1.563,0.224,2.362h-8.808V34.51z M102.43,33.335
			c-0.015-0.532-0.107-1.044-0.277-1.53c-0.17-0.488-0.409-0.922-0.721-1.299s-0.688-0.681-1.132-0.909
			c-0.444-0.229-0.946-0.344-1.508-0.344c-0.578,0-1.088,0.115-1.53,0.344c-0.443,0.229-0.82,0.532-1.132,0.909
			s-0.56,0.813-0.743,1.309c-0.186,0.496-0.308,1.002-0.365,1.521L102.43,33.335L102.43,33.335z"/>
	</g>
</g>
</svg>
