<?xml version="1.0" encoding="utf-8"?>
<!-- Generator: Adobe Illustrator 16.0.0, SVG Export Plug-In . SVG Version: 6.00 Build 0)  -->
<!DOCTYPE svg PUBLIC "-//W3C//DTD SVG 1.1//EN" "http://www.w3.org/Graphics/SVG/1.1/DTD/svg11.dtd">
<svg version="1.1" id="Layer_1" xmlns="http://www.w3.org/2000/svg" xmlns:xlink="http://www.w3.org/1999/xlink" x="0px" y="0px"
	 width="120px" height="120px" viewBox="0 0 120 120" enable-background="new 0 0 120 120" xml:space="preserve">
<path fill="none" stroke="#9DC03C" stroke-width="3" stroke-miterlimit="10" d="M110.402,100.079
	c0,6.026-4.885,10.912-10.911,10.912H18.988c-6.027,0-10.912-4.886-10.912-10.912V19.575c0-6.026,4.885-10.913,10.912-10.913h80.503
	c6.026,0,10.911,4.887,10.911,10.913V100.079z"/>
<g>
	<g>
		<path fill="#9DC03C" d="M34.851,27.816c-0.132-0.607-0.351-1.151-0.653-1.632c-0.304-0.48-0.673-0.883-1.11-1.208
			c-0.436-0.326-0.916-0.573-1.441-0.743c-0.524-0.171-1.075-0.256-1.652-0.256c-1.051,0-1.953,0.2-2.706,0.599
			c-0.755,0.4-1.373,0.93-1.854,1.587c-0.481,0.657-0.836,1.4-1.063,2.229c-0.229,0.829-0.345,1.679-0.345,2.552
			c0,0.857,0.115,1.704,0.345,2.54c0.228,0.836,0.583,1.583,1.063,2.24c0.48,0.658,1.099,1.187,1.854,1.587
			c0.753,0.399,1.655,0.6,2.706,0.6c0.739,0,1.404-0.135,1.997-0.4c0.591-0.267,1.101-0.629,1.53-1.087
			c0.428-0.458,0.776-0.994,1.042-1.608c0.267-0.613,0.437-1.276,0.51-1.984h1.51c-0.104,0.975-0.333,1.855-0.688,2.639
			c-0.354,0.784-0.813,1.449-1.375,1.996c-0.563,0.548-1.224,0.969-1.985,1.266c-0.762,0.296-1.608,0.443-2.54,0.443
			c-1.243,0-2.333-0.226-3.272-0.677c-0.938-0.451-1.719-1.054-2.341-1.809c-0.62-0.754-1.087-1.626-1.396-2.617
			c-0.312-0.99-0.467-2.033-0.467-3.128c0-1.095,0.155-2.137,0.467-3.127c0.31-0.992,0.776-1.867,1.396-2.63
			c0.622-0.762,1.402-1.367,2.341-1.818c0.939-0.451,2.029-0.677,3.272-0.677c0.754,0,1.489,0.111,2.207,0.333
			c0.718,0.222,1.367,0.55,1.952,0.987c0.584,0.436,1.072,0.971,1.465,1.607c0.391,0.636,0.639,1.368,0.743,2.197L34.851,27.816
			L34.851,27.816z"/>
		<path fill="#9DC03C" d="M43.46,27.083c0.872,0,1.646,0.163,2.318,0.488c0.673,0.326,1.237,0.762,1.696,1.309
			c0.459,0.548,0.807,1.187,1.042,1.92c0.237,0.731,0.356,1.511,0.356,2.34c0,0.828-0.119,1.608-0.356,2.341
			c-0.235,0.731-0.583,1.371-1.042,1.918c-0.459,0.548-1.023,0.98-1.696,1.298c-0.673,0.318-1.446,0.478-2.318,0.478
			c-0.873,0-1.646-0.159-2.318-0.478c-0.673-0.317-1.238-0.75-1.697-1.298c-0.459-0.547-0.806-1.187-1.043-1.918
			c-0.236-0.732-0.354-1.513-0.354-2.341c0-0.829,0.118-1.608,0.354-2.34c0.237-0.733,0.584-1.372,1.043-1.92
			c0.459-0.547,1.024-0.982,1.697-1.309C41.814,27.246,42.587,27.083,43.46,27.083z M43.46,28.26c-0.665,0-1.25,0.14-1.752,0.422
			c-0.504,0.28-0.922,0.649-1.255,1.108c-0.332,0.459-0.583,0.98-0.754,1.563c-0.17,0.584-0.255,1.18-0.255,1.786
			s0.085,1.201,0.255,1.785c0.171,0.585,0.422,1.106,0.754,1.565c0.333,0.457,0.751,0.827,1.255,1.108
			c0.502,0.28,1.087,0.422,1.752,0.422s1.249-0.142,1.752-0.422c0.503-0.281,0.921-0.651,1.253-1.108
			c0.333-0.459,0.585-0.98,0.755-1.565c0.169-0.584,0.255-1.179,0.255-1.785s-0.084-1.202-0.255-1.786
			c-0.17-0.583-0.422-1.104-0.755-1.563c-0.332-0.459-0.75-0.828-1.253-1.108C44.709,28.399,44.125,28.26,43.46,28.26z"/>
		<path fill="#9DC03C" d="M50.938,27.416h1.396v1.976h0.045c0.266-0.696,0.739-1.255,1.42-1.677c0.68-0.42,1.427-0.632,2.24-0.632
			c0.799,0,1.468,0.104,2.007,0.312c0.541,0.206,0.973,0.499,1.299,0.876c0.325,0.376,0.555,0.839,0.688,1.386
			c0.134,0.548,0.199,1.161,0.199,1.842v7.365h-1.397V31.72c0-0.488-0.044-0.943-0.133-1.364c-0.089-0.421-0.244-0.787-0.467-1.098
			c-0.222-0.312-0.521-0.555-0.898-0.732c-0.376-0.178-0.846-0.266-1.408-0.266s-1.061,0.1-1.497,0.299
			c-0.436,0.199-0.806,0.474-1.108,0.821c-0.304,0.348-0.541,0.761-0.71,1.242c-0.171,0.48-0.263,1.002-0.278,1.564v6.677H50.94
			V27.416H50.938z"/>
		<path fill="#9DC03C" d="M65.092,27.416h2.328v1.176h-2.328v7.72c0,0.459,0.063,0.817,0.188,1.075
			c0.125,0.261,0.439,0.404,0.941,0.434c0.4,0,0.799-0.022,1.198-0.066v1.176c-0.207,0-0.414,0.007-0.621,0.022
			c-0.206,0.014-0.414,0.021-0.62,0.021c-0.932,0-1.582-0.181-1.953-0.543c-0.369-0.363-0.545-1.032-0.531-2.008v-7.831h-1.996
			v-1.176h1.996v-3.438h1.397L65.092,27.416L65.092,27.416z"/>
		<path fill="#9DC03C" d="M69.307,30.922c0.045-0.667,0.186-1.242,0.422-1.73c0.236-0.488,0.559-0.888,0.965-1.198
			c0.406-0.312,0.884-0.54,1.432-0.688c0.547-0.147,1.152-0.222,1.818-0.222c0.504,0,1.006,0.049,1.509,0.145
			c0.502,0.097,0.952,0.277,1.354,0.544c0.398,0.267,0.725,0.64,0.976,1.12c0.252,0.48,0.377,1.104,0.377,1.875v6.077
			c0,0.563,0.274,0.843,0.819,0.843c0.164,0,0.313-0.029,0.444-0.088v1.175c-0.162,0.031-0.307,0.053-0.433,0.068
			c-0.127,0.014-0.284,0.021-0.477,0.021c-0.355,0-0.641-0.049-0.854-0.146c-0.216-0.097-0.382-0.233-0.5-0.41
			c-0.118-0.177-0.196-0.389-0.233-0.632c-0.037-0.245-0.055-0.514-0.055-0.811h-0.045c-0.251,0.37-0.508,0.699-0.766,0.987
			c-0.26,0.288-0.547,0.529-0.865,0.722c-0.317,0.192-0.68,0.34-1.086,0.443s-0.893,0.155-1.453,0.155
			c-0.532,0-1.032-0.063-1.497-0.188c-0.468-0.126-0.873-0.326-1.222-0.599c-0.347-0.274-0.621-0.622-0.82-1.043
			c-0.198-0.422-0.299-0.921-0.299-1.497c0-0.8,0.178-1.424,0.531-1.875c0.355-0.451,0.824-0.795,1.408-1.031
			c0.585-0.237,1.243-0.404,1.975-0.499c0.732-0.098,1.477-0.189,2.229-0.278c0.296-0.029,0.556-0.066,0.776-0.11
			c0.222-0.045,0.406-0.121,0.555-0.232c0.146-0.112,0.264-0.263,0.344-0.455c0.082-0.192,0.123-0.443,0.123-0.754
			c0-0.474-0.078-0.862-0.232-1.165c-0.155-0.304-0.37-0.543-0.645-0.722c-0.273-0.177-0.592-0.3-0.953-0.365
			c-0.363-0.066-0.75-0.1-1.164-0.1c-0.889,0-1.613,0.21-2.176,0.632s-0.857,1.099-0.887,2.03H69.307z M76.762,32.606h-0.046
			c-0.089,0.163-0.259,0.282-0.51,0.355c-0.253,0.074-0.476,0.127-0.667,0.156c-0.591,0.103-1.2,0.196-1.83,0.276
			c-0.628,0.081-1.201,0.204-1.719,0.367c-0.518,0.161-0.942,0.395-1.276,0.698c-0.332,0.303-0.498,0.735-0.498,1.297
			c0,0.355,0.07,0.669,0.21,0.943c0.141,0.274,0.329,0.51,0.566,0.71c0.236,0.2,0.51,0.351,0.82,0.455
			c0.312,0.104,0.629,0.155,0.955,0.155c0.53,0,1.041-0.081,1.529-0.245c0.488-0.163,0.913-0.398,1.273-0.709
			c0.363-0.312,0.652-0.688,0.865-1.132c0.217-0.443,0.323-0.946,0.323-1.508v-1.818H76.762z"/>
		<path fill="#9DC03C" d="M89.027,31.01c-0.191-0.857-0.547-1.53-1.063-2.019c-0.519-0.488-1.241-0.731-2.174-0.731
			c-0.665,0-1.25,0.14-1.753,0.422c-0.503,0.28-0.921,0.649-1.254,1.108c-0.332,0.459-0.583,0.98-0.754,1.563
			c-0.17,0.584-0.256,1.18-0.256,1.786s0.086,1.201,0.256,1.785c0.171,0.585,0.422,1.106,0.754,1.565
			c0.333,0.457,0.751,0.827,1.254,1.108c0.503,0.28,1.088,0.422,1.753,0.422c0.428,0,0.835-0.081,1.22-0.245
			c0.385-0.163,0.725-0.389,1.021-0.676c0.296-0.288,0.539-0.633,0.73-1.031c0.192-0.399,0.313-0.836,0.355-1.31h1.396
			c-0.191,1.391-0.701,2.475-1.531,3.25c-0.828,0.776-1.893,1.165-3.192,1.165c-0.873,0-1.646-0.159-2.317-0.478
			c-0.674-0.317-1.24-0.75-1.697-1.298c-0.459-0.547-0.807-1.187-1.043-1.918c-0.237-0.732-0.354-1.513-0.354-2.341
			c0-0.829,0.117-1.608,0.354-2.34c0.236-0.733,0.584-1.372,1.043-1.92c0.457-0.547,1.023-0.982,1.697-1.309
			c0.672-0.325,1.444-0.488,2.317-0.488c1.228,0,2.267,0.326,3.116,0.977c0.852,0.651,1.357,1.634,1.521,2.95h-1.399V31.01z"/>
		<path fill="#9DC03C" d="M94.686,27.416h2.33v1.176h-2.33v7.72c0,0.459,0.063,0.817,0.188,1.075
			c0.126,0.261,0.44,0.404,0.942,0.434c0.399,0,0.8-0.022,1.199-0.066v1.176c-0.209,0-0.414,0.007-0.621,0.022
			c-0.209,0.014-0.414,0.021-0.623,0.021c-0.932,0-1.58-0.181-1.951-0.543c-0.369-0.363-0.547-1.032-0.531-2.008v-7.831h-1.997
			v-1.176h1.997v-3.438h1.396V27.416L94.686,27.416z"/>
	</g>
</g>
<g>
	<circle fill="none" stroke="#9DC03C" stroke-width="2" stroke-miterlimit="10" cx="58.663" cy="63.226" r="9.665"/>
	<path fill="none" stroke="#9DC03C" stroke-width="2" stroke-miterlimit="10" d="M62.33,76.333l-2.777,4.224
		C59.33,80.889,58.996,81,58.663,81s-0.668-0.111-0.89-0.443l-2.777-4.224c-0.222-0.332-0.556-0.556-1-0.556
		C48,76.111,43.221,80.667,43.221,86.223v12.887c0,0.666,0.444,1.111,1.111,1.111h28.661c0.668,0,1.112-0.445,1.112-1.111V86.223
		c0-5.556-4.776-10.111-10.776-10.445C62.884,75.777,62.553,76.001,62.33,76.333z"/>
</g>
</svg>
