<?xml version="1.0" encoding="utf-8"?>
<!-- Generator: Adobe Illustrator 16.0.0, SVG Export Plug-In . SVG Version: 6.00 Build 0)  -->
<!DOCTYPE svg PUBLIC "-//W3C//DTD SVG 1.1//EN" "http://www.w3.org/Graphics/SVG/1.1/DTD/svg11.dtd">
<svg version="1.1" id="Layer_1" xmlns="http://www.w3.org/2000/svg" xmlns:xlink="http://www.w3.org/1999/xlink" x="0px" y="0px"
	 width="120px" height="120px" viewBox="0 0 120 120" enable-background="new 0 0 120 120" xml:space="preserve">
<path fill="none" stroke="#9DC03C" stroke-width="3" stroke-miterlimit="10" d="M111.163,100.253c0,6.026-4.884,10.912-10.91,10.912
	H19.749c-6.027,0-10.912-4.886-10.912-10.912V19.749c0-6.027,4.885-10.913,10.912-10.913h80.504c6.026,0,10.91,4.886,10.91,10.913
	V100.253z"/>
<g>
	<path fill="#9DC03C" stroke="#9DC03C" stroke-miterlimit="10" d="M77.51,55.517h-1.771H55.501h-15.58
		c-1.502,0-2.724,1.222-2.724,2.725v39.581c0,1.5,1.222,2.723,2.724,2.723h1.674h36.158h1.749c1.503,0,2.725-1.223,2.725-2.723
		v-37.59L77.51,55.517z M74.689,56.565v8.272c0,0.924-0.752,1.675-1.674,1.675H57.702c-0.926,0-1.678-0.752-1.678-1.675v-8.272
		H74.689z M42.643,99.497v-23.69c0-0.925,0.753-1.677,1.677-1.677h30.713c0.923,0,1.672,0.752,1.672,1.677v23.69H42.643z
		 M81.178,97.822c0,0.924-0.752,1.675-1.676,1.675h-1.749v-23.69c0-1.502-1.221-2.723-2.721-2.723H44.319
		c-1.502,0-2.725,1.221-2.725,2.723v23.69H39.92c-0.924,0-1.677-0.751-1.677-1.675V58.241c0-0.925,0.753-1.676,1.677-1.676h15.057
		v8.272c0,1.5,1.223,2.724,2.725,2.724h15.313c1.502,0,2.723-1.224,2.723-2.724v-8.272h1.339l4.101,4.1V97.822z"/>
	<rect x="70.891" y="58.241" fill="#9DC03C" stroke="#9DC03C" stroke-miterlimit="10" width="2.203" height="6.53"/>
	<rect x="47.341" y="80.257" fill="#9DC03C" stroke="#9DC03C" stroke-miterlimit="10" width="24.74" height="1.046"/>
	<rect x="47.341" y="85.296" fill="#9DC03C" stroke="#9DC03C" stroke-miterlimit="10" width="24.74" height="1.047"/>
	<rect x="47.341" y="89.877" fill="#9DC03C" stroke="#9DC03C" stroke-miterlimit="10" width="24.74" height="1.048"/>
</g>
<g>
	<g>
		<path fill="#9DC03C" d="M30.032,24.049h1.508v15.839h-1.508V24.049z"/>
		<path fill="#9DC03C" d="M35.401,31.147v-2.352h1.863v2.352H35.401z M35.401,39.888v-2.352h1.863v2.352H35.401z"/>
		<path fill="#9DC03C" d="M47.182,24.049h5.479c2.41,0.059,4.227,0.735,5.446,2.03c1.22,1.293,1.83,3.256,1.83,5.889
			c0,2.634-0.61,4.596-1.83,5.89c-1.22,1.295-3.036,1.972-5.446,2.03h-5.479V24.049z M48.69,38.601h3.217
			c1.139,0,2.118-0.121,2.939-0.366c0.82-0.243,1.497-0.632,2.029-1.164c0.532-0.532,0.924-1.22,1.176-2.063
			c0.252-0.844,0.377-1.856,0.377-3.04c0-1.183-0.125-2.195-0.377-3.039c-0.252-0.843-0.644-1.53-1.176-2.063
			c-0.532-0.533-1.209-0.921-2.029-1.164c-0.821-0.245-1.801-0.366-2.939-0.366H48.69V38.601z"/>
		<path fill="#9DC03C" d="M62.113,28.44h1.285v2.686h0.045c0.355-0.933,0.906-1.649,1.652-2.152s1.639-0.731,2.674-0.688v1.397
			c-0.637-0.029-1.213,0.056-1.729,0.255c-0.517,0.199-0.967,0.484-1.345,0.854c-0.375,0.371-0.668,0.811-0.875,1.32
			c-0.207,0.51-0.311,1.069-0.311,1.675v6.101h-1.396V28.44L62.113,28.44z"/>
		<path fill="#9DC03C" d="M69.124,24.049h1.396v2.24h-1.396V24.049z M69.124,28.44h1.396v11.447h-1.396V28.44z"/>
		<path fill="#9DC03C" d="M71.92,28.44h1.553l3.594,10.049h0.045l3.55-10.049h1.44l-4.279,11.447h-1.488L71.92,28.44z"/>
		<path fill="#9DC03C" d="M84.299,34.541c0,0.504,0.07,1.025,0.21,1.564c0.142,0.54,0.367,1.024,0.679,1.452
			c0.311,0.43,0.701,0.784,1.176,1.066c0.473,0.28,1.043,0.421,1.707,0.421c1.021,0,1.82-0.266,2.396-0.799
			c0.576-0.532,0.977-1.242,1.198-2.13h1.397c-0.297,1.302-0.84,2.308-1.631,3.018c-0.791,0.709-1.912,1.064-3.361,1.064
			c-0.901,0-1.682-0.159-2.34-0.478c-0.658-0.317-1.195-0.753-1.607-1.309c-0.416-0.555-0.723-1.197-0.92-1.93
			c-0.202-0.731-0.301-1.505-0.301-2.318c0-0.755,0.099-1.493,0.301-2.218c0.197-0.725,0.504-1.372,0.92-1.94
			c0.412-0.57,0.949-1.028,1.607-1.377c0.658-0.347,1.438-0.521,2.34-0.521c0.918,0,1.701,0.185,2.352,0.554
			c0.652,0.371,1.18,0.855,1.588,1.454c0.404,0.6,0.697,1.286,0.875,2.063c0.178,0.777,0.252,1.563,0.223,2.362h-8.809V34.541z
			 M91.708,33.366c-0.015-0.532-0.106-1.044-0.276-1.53c-0.17-0.488-0.41-0.922-0.721-1.299c-0.313-0.377-0.688-0.681-1.132-0.909
			s-0.947-0.344-1.509-0.344c-0.576,0-1.088,0.115-1.53,0.344c-0.444,0.229-0.821,0.532-1.133,0.909
			c-0.31,0.377-0.558,0.813-0.742,1.309c-0.187,0.496-0.308,1.002-0.366,1.521L91.708,33.366L91.708,33.366z"/>
	</g>
</g>
</svg>
