<?xml version="1.0" encoding="utf-8"?>
<!-- Generator: Adobe Illustrator 16.0.0, SVG Export Plug-In . SVG Version: 6.00 Build 0)  -->
<!DOCTYPE svg PUBLIC "-//W3C//DTD SVG 1.1//EN" "http://www.w3.org/Graphics/SVG/1.1/DTD/svg11.dtd">
<svg version="1.1" id="Layer_1" xmlns="http://www.w3.org/2000/svg" xmlns:xlink="http://www.w3.org/1999/xlink" x="0px" y="0px"
	 width="120px" height="120px" viewBox="0 0 120 120" enable-background="new 0 0 120 120" xml:space="preserve">
<path fill="none" stroke="#9DC03C" stroke-width="3" stroke-miterlimit="10" d="M110.973,99.533c0,6.026-4.885,10.912-10.91,10.912
	H19.558c-6.026,0-10.912-4.886-10.912-10.912V19.029c0-6.027,4.886-10.913,10.912-10.913h80.505c6.025,0,10.91,4.886,10.91,10.913
	V99.533z"/>
<g>
	<path fill="#9DC03C" d="M38.327,25.277h1.619l3.594,13.865h0.045l3.859-13.865h1.886l3.882,13.865h0.045l3.616-13.865h1.508
		l-4.37,15.84h-1.597L48.398,26.94h-0.044L44.36,41.117h-1.642L38.327,25.277z"/>
	<path fill="#9DC03C" d="M60.334,25.277h1.398v2.241h-1.398V25.277z M60.334,29.67h1.398v11.447h-1.398V29.67z"/>
	<path fill="#9DC03C" d="M64.683,25.277h10.05v1.287h-8.541v5.723h7.587v1.287h-7.587v7.543h-1.509V25.277z"/>
	<path fill="#9DC03C" d="M76.353,25.277h1.397v2.241h-1.397V25.277z M76.353,29.67h1.397v11.447h-1.397V29.67z"/>
</g>
<path fill="none" stroke="#9DC03C" stroke-width="2" stroke-miterlimit="10" d="M56.247,56.791
	c10.394-0.749,21.029,3.14,28.447,10.464c0.971,1,0.845,2.75-0.182,3.668c-0.941,1.109-2.827,1.13-3.799,0.048
	c-6.346-6.109-15.305-9.413-24.103-8.757c-7.308,0.472-14.388,3.62-19.691,8.661c-0.472,0.482-1.074,0.879-1.767,0.912
	c-1.738,0.203-3.344-1.612-2.969-3.311c0.106-0.61,0.498-1.119,0.945-1.525C39.336,61.006,47.671,57.355,56.247,56.791z"/>
<path fill="none" stroke="#9DC03C" stroke-width="2" stroke-miterlimit="10" d="M55.513,67.447
	c7.963-0.867,16.231,2.068,21.866,7.758c0.881,1.007,0.771,2.65-0.207,3.554c-0.893,1.093-2.691,1.216-3.701,0.226
	c-3.609-3.557-8.486-5.815-13.544-6.185c-6.142-0.51-12.417,1.821-16.791,6.148c-1.008,1.065-2.885,0.944-3.793-0.189
	c-0.98-0.924-1.06-2.612-0.121-3.591C43.556,70.832,49.416,68.071,55.513,67.447z"/>
<path fill="none" stroke="#9DC03C" stroke-width="2" stroke-miterlimit="10" d="M56.689,77.504c5.025-0.5,10.221,1.425,13.717,5.063
	c0.959,0.998,0.847,2.712-0.162,3.635c-0.916,1.104-2.751,1.18-3.745,0.143c-1.973-2.023-4.702-3.302-7.529-3.456
	c-3.207-0.229-6.454,1.038-8.731,3.293c-0.56,0.63-1.393,1.017-2.244,0.916c-1.978-0.139-3.351-2.778-1.988-4.362
	C48.756,79.751,52.664,77.902,56.689,77.504z"/>
<path fill="none" stroke="#9DC03C" stroke-width="2" stroke-miterlimit="10" d="M57.464,86.895c3.238-0.545,6.524,2.131,6.628,5.415
	c0.301,3.219-2.541,6.273-5.773,6.204c-2.905,0.101-5.598-2.31-5.851-5.199C52.054,90.281,54.425,87.244,57.464,86.895z"/>
</svg>
